<svg width="16" height="16" viewBox="0 0 16 16" fill="none" xmlns="http://www.w3.org/2000/svg">
<path d="M3.33334 3.33337H12C12.5304 3.33337 13.0392 3.54409 13.4142 3.91916C13.7893 4.29423 14 4.80294 14 5.33337V11.3334C14 11.8638 13.7893 12.3725 13.4142 12.7476C13.0392 13.1227 12.5304 13.3334 12 13.3334H3.33334C2.80291 13.3334 2.2942 13.1227 1.91913 12.7476C1.54406 12.3725 1.33334 11.8638 1.33334 11.3334V5.33337C1.33334 4.80294 1.54406 4.29423 1.91913 3.91916C2.2942 3.54409 2.80291 3.33337 3.33334 3.33337ZM3.33334 4.00004C3.00001 4.00004 2.70668 4.11337 2.48001 4.31337L7.66668 7.66671L12.8533 4.31337C12.6267 4.11337 12.3333 4.00004 12 4.00004H3.33334ZM7.66668 8.47337L2.08668 4.85337C2.03334 5.00004 2.00001 5.16671 2.00001 5.33337V11.3334C2.00001 11.687 2.14049 12.0261 2.39053 12.2762C2.64058 12.5262 2.97972 12.6667 3.33334 12.6667H12C12.3536 12.6667 12.6928 12.5262 12.9428 12.2762C13.1929 12.0261 13.3333 11.687 13.3333 11.3334V5.33337C13.3333 5.16671 13.3 5.00004 13.2467 4.85337L7.66668 8.47337Z" fill="white"/>
</svg>
